<svg width="393" height="400" viewBox="0 0 393 400" fill="none" xmlns="http://www.w3.org/2000/svg">
<rect width="16.1323" height="62.0411" transform="matrix(0.58008 -0.814559 0.827865 0.560928 38.643 105.345)" fill="#A1EAD8"/>
<ellipse cx="43.63" cy="97" rx="25.63" ry="25" fill="#2E7463"/>
<rect width="16.1323" height="62.0411" transform="matrix(0.13407 0.990972 -0.987576 0.157142 355.096 154.506)" fill="#A1EAD8"/>
<ellipse cx="357.167" cy="164.004" rx="25.63" ry="25" transform="rotate(136.839 357.167 164.004)" fill="#2E7463"/>
<rect width="16.1323" height="62.0411" transform="matrix(-0.997913 0.0645675 -0.0878203 -0.996136 208.198 362.058)" fill="#A1EAD8"/>
<ellipse cx="198.578" cy="363.46" rx="25.63" ry="25" transform="rotate(-129.158 198.578 363.46)" fill="#2E7463"/>
<rect width="10.4412" height="39.6547" transform="matrix(-0.606291 0.795243 -0.788964 -0.61444 312.622 288.545)" fill="#A1EAD8"/>
<circle cx="309.38" cy="294.229" r="16" transform="rotate(-177.169 309.38 294.229)" fill="#2E7463"/>
<rect width="10.4412" height="39.6547" transform="matrix(-0.105891 -0.994378 0.995414 -0.0956563 25.0117 209.839)" fill="#A1EAD8"/>
<circle cx="23.4617" cy="203.481" r="16" transform="rotate(-40.5695 23.4617 203.481)" fill="#2E7463"/>
<rect width="10.4412" height="39.6547" transform="matrix(0.939834 -0.341632 0.331946 0.943298 134.364 57.3849)" fill="#A1EAD8"/>
<circle cx="140.163" cy="54.3533" r="16" transform="rotate(35.5326 140.163 54.3533)" fill="#2E7463"/>
<rect width="17.9763" height="68.7676" transform="matrix(0.924158 0.382011 -0.373574 0.9276 243.516 30.3628)" fill="#A1EAD8"/>
<ellipse cx="253.836" cy="33.6947" rx="28.2722" ry="27.9986" transform="rotate(77.4116 253.836 33.6947)" fill="#2E7463"/>
<rect width="17.9763" height="68.7676" transform="matrix(-0.607396 -0.794399 0.788831 -0.61461 60.473 321.123)" fill="#A1EAD8"/>
<ellipse cx="53.2211" cy="313.06" rx="28.2722" ry="27.9986" transform="rotate(-72.4481 53.2211 313.06)" fill="#2E7463"/>
<circle cx="184" cy="197" r="125" fill="#40BFA1"/>
<path d="M232.649 171.287C217.558 174.657 202.565 165.036 199.162 149.797C195.759 134.558 205.234 119.472 220.326 116.102C235.417 112.732 250.41 122.354 253.813 137.593C257.216 152.832 247.741 167.917 232.649 171.287Z" fill="#8CCABB"/>
<path d="M152.119 279.699C146.728 280.902 141.383 277.509 140.179 272.119C138.976 266.728 142.37 261.383 147.76 260.179C153.15 258.976 158.495 262.37 159.699 267.76C160.902 273.15 157.509 278.495 152.119 279.699Z" fill="#8CCABB"/>
<path d="M113.119 233.699C107.728 234.902 102.383 231.509 101.179 226.119C99.9758 220.728 103.37 215.383 108.76 214.179C114.15 212.976 119.495 216.37 120.699 221.76C121.902 227.15 118.509 232.495 113.119 233.699Z" fill="#8CCABB"/>
<path d="M135.707 160.973C126.275 163.079 116.92 157.14 114.814 147.707C112.708 138.275 118.647 128.92 128.079 126.814C137.512 124.708 146.866 130.647 148.973 140.079C151.079 149.512 145.14 158.866 135.707 160.973Z" fill="#8CCABB"/>
<path d="M195.237 235.397C184.457 237.805 173.766 231.017 171.359 220.237C168.952 209.457 175.739 198.766 186.519 196.359C197.299 193.952 207.99 200.739 210.397 211.519C212.805 222.299 206.017 232.99 195.237 235.397Z" fill="#5B9B8C"/>
<path d="M195.237 235.397C184.457 237.805 173.766 231.017 171.359 220.237C168.952 209.457 175.739 198.766 186.519 196.359C197.299 193.952 207.99 200.739 210.397 211.519C212.805 222.299 206.017 232.99 195.237 235.397Z" fill="#5B9B8C"/>
<path d="M195.237 235.397C184.457 237.805 173.766 231.017 171.359 220.237C168.952 209.457 175.739 198.766 186.519 196.359C197.299 193.952 207.99 200.739 210.397 211.519C212.805 222.299 206.017 232.99 195.237 235.397Z" fill="#5B9B8C"/>
<path d="M195.237 235.397C184.457 237.805 173.766 231.017 171.359 220.237C168.952 209.457 175.739 198.766 186.519 196.359C197.299 193.952 207.99 200.739 210.397 211.519C212.805 222.299 206.017 232.99 195.237 235.397Z" fill="#5B9B8C"/>
<path d="M197 299.934C197 299.934 239.53 304.975 271 257C302.47 209.025 284.416 172 284.416 172" stroke="#8AF8CA" stroke-width="10"/>
</svg>

